<svg id="visual" viewBox="0 0 540 960" width="540" height="960" xmlns="http://www.w3.org/2000/svg" xmlns:xlink="http://www.w3.org/1999/xlink" version="1.1"><rect x="0" y="0" width="540" height="960" fill="#ffffff"></rect><path d="M215 960L211.5 933.3C208 906.7 201 853.3 197 800C193 746.7 192 693.3 197 640C202 586.7 213 533.3 213.5 480C214 426.7 204 373.3 201.7 320C199.3 266.7 204.7 213.3 204 160C203.3 106.7 196.7 53.3 193.3 26.7L190 0L540 0L540 26.7C540 53.3 540 106.7 540 160C540 213.3 540 266.7 540 320C540 373.3 540 426.7 540 480C540 533.3 540 586.7 540 640C540 693.3 540 746.7 540 800C540 853.3 540 906.7 540 933.3L540 960Z" fill="#1e1d22"></path><path d="M261 960L257.8 933.3C254.7 906.7 248.3 853.3 245.8 800C243.3 746.7 244.7 693.3 244.8 640C245 586.7 244 533.3 245.3 480C246.7 426.7 250.3 373.3 253.7 320C257 266.7 260 213.3 259.8 160C259.7 106.7 256.3 53.3 254.7 26.7L253 0L540 0L540 26.7C540 53.3 540 106.7 540 160C540 213.3 540 266.7 540 320C540 373.3 540 426.7 540 480C540 533.3 540 586.7 540 640C540 693.3 540 746.7 540 800C540 853.3 540 906.7 540 933.3L540 960Z" fill="#1b1a1f"></path><path d="M282 960L283 933.3C284 906.7 286 853.3 289.7 800C293.3 746.7 298.7 693.3 299 640C299.3 586.7 294.7 533.3 294.5 480C294.3 426.7 298.7 373.3 298.7 320C298.7 266.7 294.3 213.3 289 160C283.7 106.7 277.3 53.3 274.2 26.7L271 0L540 0L540 26.7C540 53.3 540 106.7 540 160C540 213.3 540 266.7 540 320C540 373.3 540 426.7 540 480C540 533.3 540 586.7 540 640C540 693.3 540 746.7 540 800C540 853.3 540 906.7 540 933.3L540 960Z" fill="#18171c"></path><path d="M329 960L328 933.3C327 906.7 325 853.3 323.5 800C322 746.7 321 693.3 325.5 640C330 586.7 340 533.3 341.7 480C343.3 426.7 336.7 373.3 335.3 320C334 266.7 338 213.3 338.8 160C339.7 106.7 337.3 53.3 336.2 26.7L335 0L540 0L540 26.7C540 53.3 540 106.7 540 160C540 213.3 540 266.7 540 320C540 373.3 540 426.7 540 480C540 533.3 540 586.7 540 640C540 693.3 540 746.7 540 800C540 853.3 540 906.7 540 933.3L540 960Z" fill="#151319"></path><path d="M366 960L364 933.3C362 906.7 358 853.3 359.2 800C360.3 746.7 366.7 693.3 370 640C373.3 586.7 373.7 533.3 371.8 480C370 426.7 366 373.3 368.2 320C370.3 266.7 378.7 213.3 383.7 160C388.7 106.7 390.3 53.3 391.2 26.7L392 0L540 0L540 26.7C540 53.3 540 106.7 540 160C540 213.3 540 266.7 540 320C540 373.3 540 426.7 540 480C540 533.3 540 586.7 540 640C540 693.3 540 746.7 540 800C540 853.3 540 906.7 540 933.3L540 960Z" fill="#110f15"></path><path d="M421 960L420 933.3C419 906.7 417 853.3 417.3 800C417.7 746.7 420.3 693.3 423.2 640C426 586.7 429 533.3 428.8 480C428.7 426.7 425.3 373.3 425.8 320C426.3 266.7 430.7 213.3 426.3 160C422 106.7 409 53.3 402.5 26.7L396 0L540 0L540 26.7C540 53.3 540 106.7 540 160C540 213.3 540 266.7 540 320C540 373.3 540 426.7 540 480C540 533.3 540 586.7 540 640C540 693.3 540 746.7 540 800C540 853.3 540 906.7 540 933.3L540 960Z" fill="#0d0a12"></path><path d="M464 960L462.7 933.3C461.3 906.7 458.7 853.3 459.5 800C460.3 746.7 464.7 693.3 463.8 640C463 586.7 457 533.3 451.8 480C446.7 426.7 442.3 373.3 440.3 320C438.3 266.7 438.7 213.3 440.3 160C442 106.7 445 53.3 446.5 26.7L448 0L540 0L540 26.7C540 53.3 540 106.7 540 160C540 213.3 540 266.7 540 320C540 373.3 540 426.7 540 480C540 533.3 540 586.7 540 640C540 693.3 540 746.7 540 800C540 853.3 540 906.7 540 933.3L540 960Z" fill="#07040e"></path><path d="M500 960L501.7 933.3C503.3 906.7 506.7 853.3 509.3 800C512 746.7 514 693.3 514.5 640C515 586.7 514 533.3 512.3 480C510.7 426.7 508.3 373.3 504.7 320C501 266.7 496 213.3 497.8 160C499.7 106.7 508.3 53.3 512.7 26.7L517 0L540 0L540 26.7C540 53.3 540 106.7 540 160C540 213.3 540 266.7 540 320C540 373.3 540 426.7 540 480C540 533.3 540 586.7 540 640C540 693.3 540 746.7 540 800C540 853.3 540 906.7 540 933.3L540 960Z" fill="#000000"></path></svg>